# xmcd
#
# Track frame offsets:
#	150
#	15325
#	29873
#	44705
#	58670
#	70250
#	81913
#	99242
#	113823
#	125450
#	141325
#	150678
#
# Disc length: 2190 seconds
#
# Revision: 1
# Processed by: cddbd v1.5.2PL0 Copyright (c) Steve Scherf et al.
# Submitted via: audiograbber 1.82.02
#
DISCID=a6088c0c
DTITLE=Tiroler Alpensterne - Dich zu verliern
DYEAR=1900
DGENRE=
TTITLE0=Dich zu verlieren
TTITLE1=Lass die Sonne nicht untergehen
TTITLE2=Freudentränen
TTITLE3=Amore Amore
TTITLE4=Quetsch´n Boarischer
TTITLE5=Auf´n Land bini dahoam
TTITLE6=Engel von Santa Monika
TTITLE7=Liebe ohne Glück
TTITLE8=Kann denn küssen Sünde sein
TTITLE9=Mein Tagebuch
TTITLE10=Der Einistompfer
TTITLE11=In den Bergen
EXTD=
EXTT0=
EXTT1=
EXTT2=
EXTT3=
EXTT4=
EXTT5=
EXTT6=
EXTT7=
EXTT8=
EXTT9=
EXTT10=
EXTT11=
PLAYORDER=
